# xmcd
#
# Track frame offsets:
#	150
#	25978
#	74294
#	107260
#	136099
#	169330
#	214221
#
# Disc length: 3137 seconds
#
# Revision: 1
# Processed by: cddbd v1.4PL0 Copyright (c) Steve Scherf et al.
# Submitted via: audiograbber 1.81.02
#
DISCID=5c0c3f07
DTITLE=Christine Santelli Band - Moscow Live
DYEAR=1997
DGENRE=R&B
TTITLE0=I Can't Stand The Rain
TTITLE1=Fine And Mellow
TTITLE2=Cissy Strut/Pockey Way
TTITLE3=Thrill Is Gone
TTITLE4=Boom Boom
TTITLE5=Aiko Aiko
TTITLE6=Give It Up
EXTD=
EXTT0=
EXTT1=
EXTT2=
EXTT3=
EXTT4=
EXTT5=
EXTT6=
PLAYORDER=
